<?xml version="1.0" standalone="no"?>
<!DOCTYPE svg PUBLIC "-//W3C//DTD SVG 1.1//EN" "http://www.w3.org/Graphics/SVG/1.1/DTD/svg11.dtd" >
<svg xmlns="http://www.w3.org/2000/svg" xmlns:xlink="http://www.w3.org/1999/xlink" version="1.1">
<metadata></metadata>
<defs>
<font id="sf_ui_displaymedium" horiz-adv-x="1270" >
<font-face units-per-em="2048" ascent="1638" descent="-410" />
<missing-glyph horiz-adv-x="472" />
<glyph horiz-adv-x="0" />
<glyph horiz-adv-x="682" />
<glyph unicode="&#xd;" horiz-adv-x="0" />
<glyph unicode=" "  horiz-adv-x="472" />
<glyph unicode="&#x09;" horiz-adv-x="472" />
<glyph unicode="&#xa0;" horiz-adv-x="472" />
<glyph unicode="!" horiz-adv-x="583" d="M160 114q0 55 38 92t93 37q56 0 94 -37t38 -92t-38 -92t-94 -37q-55 0 -93 37t-38 92zM180 1443h223l-16 -965h-191z" />
<glyph unicode="&#x22;" horiz-adv-x="851" d="M125 910v533h193v-533h-193zM533 910v533h192v-533h-192z" />
<glyph unicode="#" horiz-adv-x="1229" d="M32 403l32 170h215l63 314h-203l34 168h203l80 388h171l-78 -388h280l80 388h171l-79 -388h226l-32 -168h-229l-64 -314h216l-33 -170h-217l-81 -403h-172l82 403h-282l-81 -403h-171l81 403h-212zM442 564h293l67 330h-293z" />
<glyph unicode="$" d="M101 401h212q8 -92 76 -152t181 -73v473l-89 23q-168 42 -257.5 140.5t-89.5 243.5q0 171 116 278.5t320 126.5v139h137v-139q195 -16 313.5 -125.5t123.5 -275.5h-209q-3 85 -66 145.5t-162 73.5v-447l93 -21q187 -47 278 -143.5t91 -251.5q0 -182 -121 -292t-341 -128 v-133h-137v132q-214 14 -341 123.5t-128 282.5zM348 1071q0 -81 57 -134t165 -76v418q-96 -5 -159 -63.5t-63 -144.5zM707 173q119 7 184.5 65.5t65.5 157.5q0 89 -60.5 144.5t-189.5 82.5v-450z" />
<glyph unicode="%" horiz-adv-x="1549" d="M48 1105q0 166 85 265t228 99q142 0 226.5 -98.5t84.5 -265.5q0 -166 -84.5 -265.5t-226.5 -99.5q-143 0 -228 99.5t-85 265.5zM141 0l1055 1443h202l-1053 -1443h-204zM231 1105q0 -103 35 -163.5t95 -60.5q59 0 93.5 60t34.5 164q0 105 -33.5 163.5t-94.5 58.5 q-60 0 -95 -59.5t-35 -162.5zM876 347q0 166 85 265t228 99q142 0 226.5 -98.5t84.5 -265.5q0 -166 -84.5 -265.5t-226.5 -99.5q-143 0 -228 99.5t-85 265.5zM1059 347q0 -103 35 -163.5t95 -60.5q59 0 93.5 60t34.5 164q0 105 -33.5 163.5t-94.5 58.5q-60 0 -95 -59.5 t-35 -162.5z" />
<glyph unicode="&#x26;" horiz-adv-x="1394" d="M77 382q0 125 68 221.5t209 172.5q9 5 23.5 12.5t23.5 12t12 5.5q-98 103 -138.5 179t-40.5 155q0 140 108.5 232.5t271.5 92.5q166 0 272 -91t106 -234q0 -110 -71.5 -198t-231.5 -173l328 -353q62 115 62 343v55h194v-61q0 -301 -120 -480l259 -273h-263l-125 136 q-88 -77 -207.5 -119t-248.5 -42q-220 0 -355.5 112.5t-135.5 294.5zM289 398q0 -112 83 -181t217 -69q90 0 175 33t137 88l-379 414q-18 -9 -45 -24q-100 -62 -144 -123t-44 -138zM433 1128q0 -56 33 -111t113 -135q118 61 168 117.5t50 129.5q0 78 -50.5 127t-131.5 49 q-79 0 -130.5 -50t-51.5 -127z" />
<glyph unicode="'" horiz-adv-x="443" d="M125 910v533h193v-533h-193z" />
<glyph unicode="(" horiz-adv-x="663" d="M160 599q0 158 22.5 290t66 233.5t86.5 171.5t105 148h190q-40 -47 -80 -119.5t-79.5 -177t-64.5 -247.5t-25 -297q0 -124 16.5 -240.5t39 -201t59 -173.5t64 -141.5t67.5 -121.5h-197q-51 64 -95 142t-85.5 185.5t-65.5 249.5t-24 299z" />
<glyph unicode=")" horiz-adv-x="663" d="M33 1442h190q62 -79 104.5 -148t86.5 -171.5t66.5 -234t22.5 -289.5q0 -157 -24 -299t-66 -249.5t-86 -185.5t-95 -142h-197q51 87 85 158t75.5 183t63 248t21.5 289q0 154 -24.5 296.5t-63.5 247t-79 178t-80 119.5z" />
<glyph unicode="*" horiz-adv-x="990" d="M123 991l264 124l-264 124l78 138l240 -170l-25 294h158l-25 -294l241 170l77 -138l-263 -124l263 -124l-77 -137l-240 167l24 -290h-158l24 291l-239 -168z" />
<glyph unicode="+" d="M116 475v195h420v442h198v-442h420v-195h-420v-451h-198v451h-420z" />
<glyph unicode="," horiz-adv-x="552" d="M95 -262l94 488h217l-145 -488h-166z" />
<glyph unicode="-" horiz-adv-x="888" d="M116 475v195h656v-195h-656z" />
<glyph unicode="." horiz-adv-x="538" d="M138 120q0 55 38 93t93 38t93 -37.5t38 -93.5q0 -55 -38 -93t-93 -38t-93 38t-38 93z" />
<glyph unicode="/" horiz-adv-x="625" d="M0 -316l431 1760h194l-436 -1760h-189z" />
<glyph unicode="0" horiz-adv-x="1275" d="M87 723q0 344 147 545.5t404 201.5t403 -200.5t146 -545.5q0 -347 -145.5 -549t-403.5 -202t-404.5 201.5t-146.5 548.5zM314 723q0 -263 85 -412.5t239 -149.5t238.5 149.5t84.5 412.5q0 260 -85.5 409.5t-237.5 149.5t-238 -150t-86 -409z" />
<glyph unicode="1" horiz-adv-x="935" d="M95 953v220l380 270h221v-1443h-219v1221h-5z" />
<glyph unicode="2" horiz-adv-x="1186" d="M100 1018v2q0 195 140.5 322.5t355.5 127.5q206 0 343 -116t137 -288q0 -121 -67 -229.5t-234 -279.5l-361 -363v-5h685v-189h-987v152l521 531q132 138 177 212.5t45 159.5q0 96 -77 163t-189 67q-118 0 -197.5 -75.5t-79.5 -188.5v-3h-212z" />
<glyph unicode="3" horiz-adv-x="1240" d="M87 393h215q11 -105 93.5 -169t216.5 -64q132 0 217 67.5t85 173.5q0 117 -82.5 184.5t-225.5 67.5h-180v176h174q116 0 189.5 66t73.5 168q0 103 -68.5 163t-194.5 60q-117 0 -190 -62.5t-83 -169.5h-211q13 190 146.5 303t347.5 113q206 0 339 -105.5t133 -271.5 q0 -134 -81 -225.5t-216 -115.5v-4q164 -11 260.5 -105t96.5 -245q0 -187 -151 -306t-379 -119q-231 0 -372.5 115.5t-152.5 304.5z" />
<glyph unicode="4" horiz-adv-x="1271" d="M76 285v196q174 328 613 962h324v-970h198v-188h-198v-285h-215v285h-722zM285 470h515v800h-4q-358 -517 -511 -795v-5z" />
<glyph unicode="5" horiz-adv-x="1228" d="M117 401h214q12 -107 95.5 -174t204.5 -67q136 0 222 86t86 222t-85.5 223.5t-220.5 87.5q-94 0 -170.5 -40.5t-118.5 -111.5h-205l76 816h859v-189h-679l-40 -443h5q48 69 132.5 107.5t189.5 38.5q208 0 342 -136.5t134 -346.5q0 -222 -147.5 -361.5t-381.5 -139.5 q-216 0 -359 119.5t-153 308.5z" />
<glyph unicode="6" horiz-adv-x="1259" d="M88 702q0 362 153 565.5t424 203.5q191 0 327.5 -105t169.5 -278h-224q-26 89 -101 142t-174 53q-171 0 -265 -148.5t-95 -420.5h4q48 106 155 170t241 64q206 0 342.5 -136t136.5 -341q0 -217 -149 -358t-378 -141q-160 0 -283.5 79t-194.5 225q-89 173 -89 426z M348 468q0 -129 88 -218t217 -89q128 0 217 88t89 215q0 131 -85.5 216t-218.5 85q-132 0 -219.5 -84.5t-87.5 -212.5z" />
<glyph unicode="7" horiz-adv-x="1139" d="M72 1254v189h982v-194l-627 -1249h-235l641 1249v5h-761z" />
<glyph unicode="8" horiz-adv-x="1266" d="M87 390q0 137 88.5 239t232.5 132v5q-120 33 -191.5 120.5t-71.5 203.5q0 164 138 272t350 108q213 0 350 -107.5t137 -273.5q0 -114 -71 -201t-191 -122v-5q144 -30 232.5 -132t88.5 -239q0 -184 -153 -300.5t-393 -116.5q-241 0 -393.5 117t-152.5 300zM318 406 q0 -110 88.5 -181.5t226.5 -71.5t226 71.5t88 181.5q0 112 -88 183.5t-226 71.5t-226.5 -72t-88.5 -183zM367 1066q0 -99 74.5 -162t191.5 -63q116 0 191 63.5t75 161.5q0 99 -74.5 162.5t-191.5 63.5t-191.5 -63.5t-74.5 -162.5z" />
<glyph unicode="9" horiz-adv-x="1260" d="M77 972q0 217 149 358t378 141q160 0 284.5 -78.5t194.5 -224.5q89 -173 89 -426q0 -362 -152.5 -565.5t-423.5 -203.5q-192 0 -329.5 105.5t-169.5 277.5h225q26 -89 101.5 -143t175.5 -54q169 0 263 150t94 422h-2h-1h-1q-44 -107 -151 -171.5t-245 -64.5 q-206 0 -342.5 136t-136.5 341zM300 979q0 -130 86.5 -215.5t217.5 -85.5q133 0 221 84.5t88 212.5t-88.5 216.5t-217.5 88.5t-218 -87.5t-89 -213.5z" />
<glyph unicode=":" horiz-adv-x="538" d="M138 120q0 55 38 93t93 38t93 -37.5t38 -93.5q0 -55 -38 -93t-93 -38t-93 38t-38 93zM138 849q0 55 38 93t93 38t93 -38t38 -93t-38 -93t-93 -38t-93 38t-38 93z" />
<glyph unicode=";" horiz-adv-x="538" d="M59 -262l93 488h219l-146 -488h-166zM138 849q0 55 38 93t93 38t93 -38t38 -93t-38 -93t-93 -38t-93 38t-38 93z" />
<glyph unicode="&#x3c;" d="M182 486v172l906 519v-224l-689 -371v-9l689 -353v-224z" />
<glyph unicode="=" d="M134 272v189h1002v-189h-1002zM134 685v189h1002v-189h-1002z" />
<glyph unicode="&#x3e;" d="M182 -3v224l689 353v9l-689 371v224l906 -519v-172z" />
<glyph unicode="?" horiz-adv-x="1035" d="M55 1056q7 177 125.5 288t328.5 111q196 0 319 -104.5t123 -266.5q0 -217 -210 -343q-96 -57 -131 -105.5t-35 -126.5v-61h-207l-1 80q-4 104 42.5 177t150.5 136q92 55 128 106t36 128q0 86 -62 141t-164 55q-103 0 -166 -58t-70 -157h-207zM342 114q0 55 38 92t93 37 q56 0 94 -37t38 -92t-38 -92t-94 -37q-55 0 -93 37t-38 92z" />
<glyph unicode="@" horiz-adv-x="1798" d="M92 606q0 246 105.5 436t295 294t432.5 104q232 0 414.5 -91.5t285.5 -260t103 -386.5q0 -241 -102.5 -384.5t-279.5 -143.5q-89 0 -153.5 45.5t-76.5 118.5h-10q-31 -76 -96 -116.5t-153 -40.5q-156 0 -252 117t-96 307q0 182 96 296.5t248 114.5q80 0 146 -38.5 t94 -102.5h11v121h169v-568q0 -51 27 -81t80 -30q85 0 138.5 101t53.5 279q0 272 -182 438.5t-476 166.5q-192 0 -344 -89t-237 -249.5t-85 -363.5q0 -216 91 -373.5t248 -236.5t361 -79q210 0 313 43v-138q-134 -44 -320 -44q-185 0 -341 56.5t-269 161.5t-176 263t-63 353 zM693 600q0 -122 52.5 -192.5t143.5 -70.5q95 0 151 71t56 192t-55.5 192t-150.5 71q-92 0 -144.5 -69.5t-52.5 -193.5z" />
<glyph unicode="A" horiz-adv-x="1336" d="M26 0l521 1443h242l521 -1443h-237l-132 390h-550l-132 -390h-233zM448 570h436l-215 633h-6z" />
<glyph unicode="B" horiz-adv-x="1279" d="M133 0v1443h591q191 0 307 -98.5t116 -261.5q0 -115 -74 -205.5t-182 -108.5v-8q147 -17 237.5 -113.5t90.5 -239.5q0 -191 -131 -299.5t-362 -108.5h-593zM357 183h324q151 0 230 61t79 178t-81.5 176.5t-240.5 59.5h-311v-475zM357 829h265q146 0 224 58t78 165 q0 100 -66.5 154t-188.5 54h-312v-431z" />
<glyph unicode="C" horiz-adv-x="1424" d="M81 722q0 342 179 543.5t482 201.5q246 0 415 -138.5t197 -363.5h-222q-30 139 -136.5 222.5t-253.5 83.5q-197 0 -314.5 -149.5t-117.5 -399.5q0 -253 117 -401.5t316 -148.5q150 0 252.5 73t136.5 204h223q-41 -224 -202.5 -348.5t-410.5 -124.5q-304 0 -482.5 201 t-178.5 545z" />
<glyph unicode="D" horiz-adv-x="1413" d="M133 0v1443h517q323 0 503 -189t180 -530q0 -342 -180 -533t-503 -191h-517zM357 194h272q230 0 353 136.5t123 391.5t-123 391.5t-353 136.5h-272v-1056z" />
<glyph unicode="E" horiz-adv-x="1146" d="M133 0v1443h916v-193h-692v-422h655v-186h-655v-448h692v-194h-916z" />
<glyph unicode="F" horiz-adv-x="1096" d="M133 0v1443h901v-193h-677v-457h620v-189h-620v-604h-224z" />
<glyph unicode="G" horiz-adv-x="1462" d="M81 728q0 341 180.5 540t489.5 199q241 0 408.5 -131t205.5 -347h-230q-40 134 -141 208t-242 74q-207 0 -324.5 -143.5t-117.5 -397.5q0 -259 120 -408.5t326 -149.5q175 0 286 102.5t113 266.5v25h-373v181h594v-147q0 -293 -164.5 -458.5t-457.5 -165.5 q-310 0 -491.5 202.5t-181.5 549.5z" />
<glyph unicode="H" horiz-adv-x="1454" d="M133 0v1443h224v-610h741v610h224v-1443h-224v639h-741v-639h-224z" />
<glyph unicode="I" horiz-adv-x="490" d="M133 0v1443h224v-1443h-224z" />
<glyph unicode="J" horiz-adv-x="1060" d="M38 370h220q2 -90 61.5 -146t153.5 -56q110 0 168.5 64.5t58.5 188.5v1022h224v-1023q0 -214 -119 -333t-330 -119q-195 0 -316 111t-121 291z" />
<glyph unicode="K" horiz-adv-x="1293" d="M133 0v1443h224v-687h9l603 687h266l-572 -639l620 -804h-278l-500 650l-148 -169v-481h-224z" />
<glyph unicode="L" horiz-adv-x="1088" d="M133 0v1443h224v-1249h672v-194h-896z" />
<glyph unicode="M" horiz-adv-x="1726" d="M133 0v1443h259l467 -1139h8l466 1139h260v-1443h-205v1062h-7l-435 -1051h-166l-436 1051h-7v-1062h-204z" />
<glyph unicode="N" horiz-adv-x="1443" d="M133 0v1443h203l748 -1064h8v1064h218v-1443h-202l-748 1063h-9v-1063h-218z" />
<glyph unicode="O" horiz-adv-x="1513" d="M81 721q0 344 182 545t494 201q311 0 493.5 -201t182.5 -545t-182 -544.5t-494 -200.5t-494 200.5t-182 544.5zM310 721q0 -252 120.5 -400t326.5 -148q205 0 325.5 148t120.5 400q0 253 -120.5 401t-325.5 148q-206 0 -326.5 -148t-120.5 -401z" />
<glyph unicode="P" horiz-adv-x="1237" d="M133 0v1443h565q210 0 343 -132t133 -342q0 -211 -135 -343.5t-348 -132.5h-334v-493h-224zM357 681h282q146 0 226 75.5t80 211.5q0 137 -80 211.5t-226 74.5h-282v-573z" />
<glyph unicode="Q" horiz-adv-x="1513" d="M81 721q0 344 182 545t494 201q311 0 493.5 -201.5t182.5 -544.5q0 -201 -65 -357t-186 -250l188 -267h-234l-123 172q-114 -43 -256 -43q-312 0 -494 200t-182 545zM310 721q0 -252 121 -400.5t326 -148.5q70 0 135 20l-172 243h227l102 -138q154 143 154 424 q0 253 -120.5 401.5t-325.5 148.5t-326 -148.5t-121 -401.5z" />
<glyph unicode="R" horiz-adv-x="1265" d="M133 0v1443h567q222 0 352 -119.5t130 -321.5q0 -147 -74.5 -257.5t-205.5 -154.5l324 -590h-259l-294 555h-316v-555h-224zM357 736h322q130 0 201.5 68t71.5 192q0 121 -74.5 190t-204.5 69h-316v-519z" />
<glyph unicode="S" horiz-adv-x="1244" d="M69 402h221q12 -107 107 -172t238 -65q136 0 224.5 63t88.5 160q0 84 -63 137.5t-203 87.5l-187 45q-199 48 -293.5 143t-94.5 246q0 186 146.5 303t378.5 117q228 0 372 -116.5t149 -303.5h-218q-10 107 -92.5 169t-213.5 62q-130 0 -211.5 -60t-81.5 -156 q0 -76 61 -124.5t201 -83.5l159 -39q222 -52 320.5 -146.5t98.5 -253.5q0 -202 -150 -320.5t-407 -118.5q-241 0 -390.5 115.5t-159.5 310.5z" />
<glyph unicode="T" horiz-adv-x="1222" d="M49 1250v193h1123v-193h-449v-1250h-224v1250h-450z" />
<glyph unicode="U" horiz-adv-x="1434" d="M133 507v936h224v-917q0 -158 95.5 -254.5t264.5 -96.5t265 96.5t96 254.5v917h223v-936q0 -237 -158 -384t-426 -147t-426 147t-158 384z" />
<glyph unicode="V" horiz-adv-x="1327" d="M26 1443h243l393 -1191h6l394 1191h239l-515 -1443h-245z" />
<glyph unicode="W" horiz-adv-x="1923" d="M44 1443h233l267 -1130h8l305 1130h208l306 -1130h8l267 1130h233l-390 -1443h-211l-312 1088h-10l-311 -1088h-212z" />
<glyph unicode="X" horiz-adv-x="1337" d="M44 0l479 723v7l-474 713h267l356 -558h8l360 558h253l-489 -721v-6l480 -716h-262l-359 550h-7l-364 -550h-248z" />
<glyph unicode="Y" horiz-adv-x="1293" d="M26 1443h250l368 -637h7l368 637h248l-509 -852v-591h-224v591z" />
<glyph unicode="Z" horiz-adv-x="1273" d="M95 0v153l790 1089v8h-766v193h1041v-153l-787 -1089v-7h806v-194h-1084z" />
<glyph unicode="[" horiz-adv-x="697" d="M184 -240v1684h496v-164h-287v-1356h300v-164h-509z" />
<glyph unicode="\" horiz-adv-x="625" d="M0 1444h193l432 -1760h-189z" />
<glyph unicode="]" horiz-adv-x="697" d="M4 -76h301v1356h-288v164h495v-1684h-508v164z" />
<glyph unicode="^" horiz-adv-x="926" d="M48 818l308 622h215l307 -622h-201l-206 440h-17l-207 -440h-199z" />
<glyph unicode="_" horiz-adv-x="838" d="M-51 -107h941v-160h-941v160z" />
<glyph unicode="`" horiz-adv-x="1007" d="M282 1558h225l215 -303h-178z" />
<glyph unicode="a" horiz-adv-x="1092" d="M63 311q0 142 106.5 223t308.5 94l293 17v84q0 93 -59.5 142.5t-168.5 49.5q-88 0 -148.5 -42t-74.5 -113h-203q5 144 127 239t305 95q199 0 317.5 -97t118.5 -258v-745h-207v181h-5q-45 -88 -138 -140t-205 -52q-163 0 -265 88.5t-102 233.5zM282 315q0 -70 56 -111.5 t150 -41.5q121 0 202 69.5t81 176.5v85l-264 -18q-225 -14 -225 -160z" />
<glyph unicode="b" horiz-adv-x="1201" d="M120 0v1508h217v-602h4q50 92 139.5 141.5t204.5 49.5q206 0 330 -151t124 -403t-124.5 -403t-331.5 -151q-118 0 -208.5 50.5t-140.5 144.5h-5v-184h-209zM336 543q0 -166 80.5 -268t211.5 -102t210 100.5t79 269.5t-79 269.5t-210 100.5t-211.5 -102.5t-80.5 -267.5z " />
<glyph unicode="c" horiz-adv-x="1089" d="M62 543q0 253 139 405t370 152q101 0 187 -30.5t144.5 -83.5t94 -122.5t42.5 -148.5h-207q-16 90 -83.5 146t-175.5 56q-132 0 -211.5 -102t-79.5 -272q0 -174 80 -274t212 -100q106 0 173.5 50.5t86.5 145.5h207q-19 -171 -146 -274.5t-322 -103.5q-232 0 -371.5 150 t-139.5 406z" />
<glyph unicode="d" horiz-adv-x="1200" d="M62 544q0 249 126.5 401t329.5 152q116 0 205.5 -50.5t136.5 -140.5h5v602h216v-1508h-210v184h-4q-48 -93 -138.5 -144t-208.5 -51q-205 0 -331.5 152t-126.5 403zM284 543q0 -169 79.5 -269.5t211.5 -100.5q131 0 211 102t80 268t-80.5 268t-210.5 102 q-131 0 -211 -101t-80 -269z" />
<glyph unicode="e" horiz-adv-x="1113" d="M62 539q0 255 137 408t365 153q224 0 355 -144.5t131 -391.5v-76h-769v-13q0 -141 81 -226.5t215 -85.5q95 0 164 42t91 113h207q-23 -146 -153 -238.5t-313 -92.5q-236 0 -373.5 148.5t-137.5 403.5zM282 642h551q-4 127 -78 204t-192 77q-117 0 -194.5 -78t-86.5 -203z " />
<glyph unicode="f" horiz-adv-x="667" d="M26 915v171h150v100q0 153 74 222.5t238 69.5q52 0 110 -10v-165q-35 8 -81 8q-67 0 -96.5 -31t-30.5 -101v-93h209v-171h-207v-915h-216v915h-150z" />
<glyph unicode="g" horiz-adv-x="1192" d="M62 547q0 251 124.5 400.5t333.5 149.5q115 0 206 -50.5t141 -140.5h4v180h210v-1058q0 -194 -136.5 -306.5t-371.5 -112.5q-196 0 -324 84t-144 223h219q18 -63 88 -100t170 -37q129 0 206 63t77 169v179h-5q-47 -88 -138.5 -137.5t-206.5 -49.5q-204 0 -328.5 148.5 t-124.5 395.5zM284 546q0 -166 78.5 -264.5t209.5 -98.5q132 0 212.5 99.5t80.5 263.5q0 165 -80.5 266t-212.5 101q-131 0 -209.5 -100t-78.5 -267z" />
<glyph unicode="h" horiz-adv-x="1195" d="M120 0v1508h215v-605h5q99 195 353 195q179 0 287.5 -110t108.5 -294v-694h-216v652q0 122 -68 191t-187 69q-126 0 -203.5 -80t-77.5 -210v-622h-217z" />
<glyph unicode="i" horiz-adv-x="455" d="M101 1366q0 53 37 89t90 36t90 -36t37 -89q0 -52 -37 -88.5t-90 -36.5t-90 36.5t-37 88.5zM119 0v1086h217v-1086h-217z" />
<glyph unicode="j" horiz-adv-x="455" d="M-65 -217q1 0 15 -0.5t16 -0.5q84 0 118.5 35t34.5 119v1150h217v-1151q0 -166 -87 -245.5t-266 -79.5q-43 0 -48 1v172zM101 1366q0 53 37 89t90 36t90 -36t37 -89q0 -52 -37 -88.5t-90 -36.5t-90 36.5t-37 88.5z" />
<glyph unicode="k" horiz-adv-x="1062" d="M120 0v1508h217v-891h1l447 469h255l-454 -468l470 -618h-250l-375 486l-94 -92v-394h-217z" />
<glyph unicode="l" horiz-adv-x="457" d="M120 0v1508h217v-1508h-217z" />
<glyph unicode="m" horiz-adv-x="1740" d="M111 0v1086h207v-184h4q37 91 119.5 143.5t189.5 52.5q113 0 192 -55t112 -156h5q43 98 133.5 154.5t206.5 56.5q161 0 257.5 -97.5t96.5 -260.5v-740h-216v688q0 107 -55.5 165.5t-156.5 58.5q-100 0 -163.5 -67t-63.5 -171v-674h-213v706q0 94 -56.5 150t-151.5 56 q-100 0 -165 -69.5t-65 -176.5v-666h-217z" />
<glyph unicode="n" horiz-adv-x="1168" d="M111 0v1086h207v-183h4q101 195 353 195q180 0 283.5 -107.5t103.5 -294.5v-696h-217v655q0 124 -63 190.5t-182 66.5q-123 0 -197.5 -78.5t-74.5 -206.5v-627h-217z" />
<glyph unicode="o" horiz-adv-x="1152" d="M62 543q0 255 139.5 406t374.5 151t374 -150.5t139 -406.5t-138.5 -406t-374.5 -150t-375 150t-139 406zM282 543q0 -177 78 -276.5t216 -99.5t215.5 99t77.5 277t-77.5 277.5t-215.5 99.5t-216 -100t-78 -277z" />
<glyph unicode="p" horiz-adv-x="1192" d="M111 -355v1441h209v-180h5q46 88 139.5 139.5t206.5 51.5q208 0 333.5 -151t125.5 -403q0 -251 -124.5 -402.5t-329.5 -151.5q-117 0 -206 49.5t-138 139.5h-4v-533h-217zM326 543q1 -167 80.5 -268.5t209.5 -101.5q132 0 212 101t80 269t-80 269t-212 101 q-129 0 -209 -102t-81 -268z" />
<glyph unicode="q" horiz-adv-x="1192" d="M62 544q0 251 125.5 402t332.5 151q118 0 208.5 -50t138.5 -141h4v180h210v-1441h-216v533h-5q-47 -89 -138 -139t-207 -50q-204 0 -328.5 151.5t-124.5 403.5zM284 543q0 -169 78.5 -269.5t209.5 -100.5t212 102t81 268q0 165 -81 267.5t-212 102.5t-209.5 -100.5 t-78.5 -269.5z" />
<glyph unicode="r" horiz-adv-x="688" d="M111 0v1086h207v-183h4q25 91 95.5 142.5t166.5 51.5q45 0 72 -8v-203q-36 14 -95 14q-107 0 -170 -68.5t-63 -183.5v-648h-217z" />
<glyph unicode="s" horiz-adv-x="1018" d="M64 314h214q13 -78 74.5 -119.5t164.5 -41.5q101 0 160.5 39t59.5 105q0 52 -35.5 82t-121.5 52l-194 48q-293 72 -293 298q0 143 117 232.5t304 89.5q178 0 294.5 -90.5t120.5 -232.5h-204q-7 72 -65 114t-151 42q-92 0 -148.5 -39.5t-56.5 -103.5q0 -98 169 -139 l180 -43q164 -40 232 -106t68 -186q0 -145 -125 -236.5t-322 -91.5q-189 0 -309.5 89.5t-132.5 237.5z" />
<glyph unicode="t" horiz-adv-x="672" d="M26 915v171h150v244h216v-244h208v-171h-208v-607q0 -71 32.5 -104.5t100.5 -33.5q39 0 74 5v-171q-44 -11 -122 -11q-163 0 -232 67.5t-69 225.5v629h-150z" />
<glyph unicode="u" horiz-adv-x="1168" d="M106 390v696h217v-655q0 -125 64 -190.5t182 -65.5q122 0 196.5 78t74.5 207v626h217v-1086h-207v186h-4q-47 -97 -137 -147.5t-214 -50.5q-178 0 -283.5 108t-105.5 294z" />
<glyph unicode="v" horiz-adv-x="1052" d="M19 1086h229l277 -872h5l278 872h225l-391 -1086h-231z" />
<glyph unicode="w" horiz-adv-x="1563" d="M26 1086h216l202 -860h4l230 860h208l231 -860h4l202 860h214l-299 -1086h-224l-231 818h-5l-229 -818h-223z" />
<glyph unicode="x" horiz-adv-x="1032" d="M31 0l361 542l-357 544h243l241 -395h5l239 395h238l-358 -536l354 -550h-239l-243 403h-5l-244 -403h-235z" />
<glyph unicode="y" horiz-adv-x="1066" d="M21 1086h233l279 -888h5l279 888h228l-407 -1136q-70 -195 -160.5 -270t-257.5 -75q-54 0 -88 6v176q20 -5 69 -5q78 0 123.5 36.5t73.5 122.5l17 56z" />
<glyph unicode="z" horiz-adv-x="1015" d="M89 0v141l584 769v3h-581v173h828v-149l-570 -760v-4h576v-173h-837z" />
<glyph unicode="{" horiz-adv-x="771" d="M138 504v219q98 0 136.5 46t38.5 165v232q0 183 97 269t304 86h76v-167h-45q-124 0 -175.5 -50t-51.5 -169v-276q0 -215 -189 -233v-27q189 -18 189 -241v-309q0 -118 52 -168t175 -50h45v-166h-76q-206 0 -303.5 88t-97.5 275v266q0 118 -38 164t-137 46z" />
<glyph unicode="|" horiz-adv-x="503" d="M155 -314v1757h192v-1757h-192z" />
<glyph unicode="}" horiz-adv-x="771" d="M-19 -169h45q123 0 175 50t52 168v309q0 223 190 241v27q-97 9 -143.5 66.5t-46.5 166.5v276q0 119 -51.5 169t-175.5 50h-45v167h76q207 0 304 -86t97 -269v-232q0 -119 38.5 -165t136.5 -46v-219q-99 0 -137 -46t-38 -164v-266q0 -187 -97 -275t-304 -88h-76v166z" />
<glyph unicode="~" horiz-adv-x="1225" d="M98 547q-4 172 79.5 272.5t230.5 100.5q125 0 252 -127q50 -51 83.5 -72t67.5 -21q124 0 132 179h184q4 -173 -79 -273t-231 -100q-66 0 -125 30t-125 96q-52 52 -85.5 73t-67.5 21q-123 0 -132 -179h-184z" />
<glyph unicode="&#xa1;" horiz-adv-x="583" d="M160 995q0 55 38 92.5t93 37.5q56 0 94 -37.5t38 -92.5q0 -54 -38 -91.5t-94 -37.5q-55 0 -93 37.5t-38 91.5zM180 -335l16 965h191l16 -965h-223z" />
<glyph unicode="&#xa2;" d="M114 717q0 221 118 370t317 181v177h198v-174q168 -21 283.5 -130.5t125.5 -257.5h-209q-19 97 -98 154.5t-194 57.5q-142 0 -231.5 -105t-89.5 -273q0 -170 90 -277t231 -107q253 0 292 206h209q-16 -153 -128 -257.5t-281 -124.5v-174h-198v177q-199 33 -317 183 t-118 374z" />
<glyph unicode="&#xa3;" d="M101 0v181q133 26 219.5 122.5t86.5 218.5q0 54 -17 124h-288v167h231q-61 160 -61 256q0 193 140.5 301t391.5 108q90 0 175 -14.5t136 -37.5v-187q-43 22 -126 37.5t-165 15.5q-153 0 -239 -62.5t-86 -173.5q0 -91 55 -243h450v-167h-396q14 -65 14 -113 q0 -113 -56 -201t-141 -139v-5h760v-188h-1084z" />
<glyph unicode="&#xa4;" horiz-adv-x="1279" d="M130 270l162 163q-64 102 -64 220q0 119 64 221l-162 162l128 127l162 -161q102 64 221 64q118 0 220 -64l160 161l128 -127l-161 -162q64 -102 64 -221q0 -120 -65 -221l162 -162l-128 -127l-161 161q-101 -63 -219 -63q-120 0 -221 65l-162 -163zM387 653 q0 -104 75 -178.5t179 -74.5t178 74.5t74 178.5t-74 179t-178 75t-179 -75t-75 -179z" />
<glyph unicode="&#xa5;" d="M15 1443h249l368 -635h7l367 635h249l-445 -746h212v-147h-274v-155h274v-147h-274v-248h-224v248h-275v147h275v155h-275v147h213z" />
<glyph unicode="&#xa6;" horiz-adv-x="504" d="M156 -314v669h192v-669h-192zM156 774v669h192v-669h-192z" />
<glyph unicode="&#xa7;" horiz-adv-x="990" d="M69 534q0 95 58.5 164.5t162.5 99.5v17q-215 89 -215 273q0 144 114.5 232.5t300.5 88.5q173 0 283.5 -81.5t125.5 -220.5h-201q-9 61 -66.5 98t-144.5 37q-92 0 -148.5 -40.5t-56.5 -106.5q0 -52 41.5 -87t135.5 -62l152 -45q161 -47 235.5 -115.5t74.5 -170.5 q0 -101 -68 -179t-178 -102v-17q243 -67 243 -260q0 -143 -117 -233.5t-303 -90.5q-177 0 -293.5 86.5t-125.5 224.5h204q9 -64 70.5 -103.5t151.5 -39.5q93 0 151 40.5t58 106.5q0 52 -42.5 87t-137.5 61l-153 46q-163 46 -237.5 116t-74.5 176zM274 575q0 -56 42.5 -97.5 t118.5 -59.5l92 -25q80 3 135 53t55 121q0 58 -41.5 98.5t-118.5 59.5l-92 24q-79 -3 -135 -54t-56 -120z" />
<glyph unicode="&#xa8;" horiz-adv-x="1006" d="M181 1379q0 49 35.5 84t85.5 35t85 -34.5t35 -84.5q0 -49 -35 -84t-85 -35t-85.5 35t-35.5 84zM584 1379q0 49 35.5 84t85.5 35t85 -34.5t35 -84.5q0 -49 -35 -84t-85 -35t-85.5 35t-35.5 84z" />
<glyph unicode="&#xa9;" horiz-adv-x="1703" d="M60 635q0 221 105 403t286.5 285.5t399.5 103.5q220 0 401.5 -103.5t286 -285.5t104.5 -403t-104.5 -403t-286.5 -286t-401 -104q-218 0 -399.5 104t-286.5 286t-105 403zM209 635q0 -180 85.5 -328t232.5 -232t324 -84q133 0 252 49.5t204.5 135t135.5 205t50 254.5 t-50 255t-135.5 204.5t-204.5 134t-252 49.5q-177 0 -324 -83.5t-232.5 -231.5t-85.5 -328zM478 636q0 189 105.5 300.5t283.5 111.5q150 0 245.5 -79.5t112.5 -203.5h-156q-16 65 -68.5 105.5t-132.5 40.5q-104 0 -165.5 -73.5t-61.5 -201.5q0 -129 61.5 -203.5 t165.5 -74.5q79 0 132 36.5t69 104.5h156q-17 -125 -111.5 -201.5t-244.5 -76.5q-180 0 -285.5 111.5t-105.5 303.5z" />
<glyph unicode="&#xaa;" horiz-adv-x="914" d="M99 845q0 113 82 179t238 76l209 13v69q0 59 -42 92t-116 33q-64 0 -104.5 -23.5t-50.5 -67.5h-185q10 113 103 179.5t243 66.5q158 0 248.5 -76t90.5 -209v-571h-181v107h-13q-39 -60 -105 -93.5t-146 -33.5q-121 0 -196 71.5t-75 187.5zM290 854q0 -55 39 -87.5 t107 -32.5q83 0 138.5 50t55.5 126v77l-185 -13q-155 -12 -155 -120z" />
<glyph unicode="&#xab;" horiz-adv-x="1322" d="M127 561v8l349 415h228l-349 -412v-13l349 -412h-229zM617 561v8l349 415h228l-349 -412v-13l349 -412h-229z" />
<glyph unicode="&#xac;" d="M144 489v184h982v-569h-186v385h-796z" />
<glyph unicode="&#xad;" horiz-adv-x="888" d="M116 475v195h656v-195h-656z" />
<glyph unicode="&#xae;" horiz-adv-x="1093" d="M93 1079q0 186 132 316.5t321 130.5q190 0 322 -130t132 -317t-132 -317t-322 -130q-188 0 -320.5 130t-132.5 317zM204 1079q0 -143 99.5 -243t242.5 -100q144 0 243.5 100t99.5 243t-99.5 242.5t-243.5 99.5q-143 0 -242.5 -99.5t-99.5 -242.5zM367 881v420h211 q68 0 110 -36t42 -94q0 -49 -25.5 -82.5t-69.5 -42.5l116 -165h-121l-98 151h-67v-151h-98zM465 1106h93q32 0 49.5 16t17.5 44q0 55 -65 55h-95v-115z" />
<glyph unicode="&#xaf;" horiz-adv-x="1000" d="M177 1312v119h646v-119h-646z" />
<glyph unicode="&#xb0;" horiz-adv-x="728" d="M73 1136q0 122 84 206.5t206 84.5t207 -84.5t85 -206.5t-85 -206.5t-207 -84.5q-121 0 -205.5 84.5t-84.5 206.5zM215 1136q0 -60 44.5 -104t104.5 -44q62 0 105 43.5t43 104.5q0 62 -43 105.5t-105 43.5q-60 0 -104.5 -43.5t-44.5 -105.5z" />
<glyph unicode="&#xb1;" d="M130 99v173h1010v-173h-1010zM130 658v165h413v272h184v-272h413v-165h-413v-272h-184v272h-413z" />
<glyph unicode="&#xb2;" horiz-adv-x="635" d="M40 1587v4q0 104 75.5 168t198.5 64q118 0 191.5 -56.5t73.5 -148.5q0 -54 -28.5 -102t-99.5 -112l-158 -144v-3h294v-143h-536v124l273 247q42 41 58 67t16 53q0 35 -25.5 57t-66.5 22t-68 -26.5t-27 -66.5v-4h-171z" />
<glyph unicode="&#xb3;" horiz-adv-x="662" d="M42 1323h177q3 -38 31.5 -59.5t74.5 -21.5q45 0 73 22.5t28 57.5q0 38 -27.5 60t-75.5 22h-84v126h85q42 0 67 22t25 57t-25 55.5t-69 20.5q-43 0 -70 -23.5t-29 -62.5h-168q1 101 75.5 162.5t197.5 61.5q118 0 190 -51.5t72 -136.5q0 -61 -39 -104.5t-105 -55.5v-4 q79 -7 124 -51.5t45 -113.5q0 -95 -79.5 -152.5t-211.5 -57.5q-124 0 -201 62t-81 165z" />
<glyph unicode="&#xb4;" horiz-adv-x="1007" d="M284 1255l215 303h225l-262 -303h-178z" />
<glyph unicode="&#xb6;" horiz-adv-x="1299" d="M96 981q0 200 140.5 331t352.5 131h235v-1676h-216v765h-20q-210 0 -351 128.5t-141 320.5zM979 -233v1676h216v-1676h-216z" />
<glyph unicode="&#xb7;" horiz-adv-x="560" d="M149 613q0 55 38 93t93 38q56 0 93.5 -38t37.5 -93t-38 -93t-93 -38t-93 38t-38 93z" />
<glyph unicode="&#xb8;" horiz-adv-x="1007" d="M327 -344q37 -14 118 -14q115 0 115 66q0 34 -32.5 48.5t-108.5 14.5h-55v83l63 155l122 -9l-51 -132q97 0 148.5 -39.5t51.5 -114.5q0 -80 -62.5 -129.5t-163.5 -50.5q-85 -2 -145 17v105z" />
<glyph unicode="&#xb9;" horiz-adv-x="516" d="M64 1528v159l176 118h183v-691h-180v533h-3z" />
<glyph unicode="&#xba;" horiz-adv-x="981" d="M87 1018q0 205 108 323t296 118t295.5 -117.5t107.5 -322.5q0 -206 -107.5 -323t-295.5 -117q-189 0 -296.5 117t-107.5 322zM286 1018q0 -134 53.5 -207.5t151.5 -73.5t151 73.5t53 208.5q0 134 -53 207t-151 73t-151.5 -73.5t-53.5 -207.5z" />
<glyph unicode="&#xbb;" horiz-adv-x="1321" d="M127 147l349 412v13l-349 412h228l349 -415v-8l-347 -414h-230zM617 147l349 412v13l-349 412h228l349 -415v-8l-347 -414h-230z" />
<glyph unicode="&#xbc;" horiz-adv-x="1521" d="M74 1167v159l176 118h183v-691h-180v533h-3zM99 0l1055 1443h202l-1053 -1443h-204zM884 108v156q81 156 259 427h259v-438h85v-145h-85v-108h-177v108h-341zM1041 246h189v320h-3q-125 -199 -186 -317v-3z" />
<glyph unicode="&#xbd;" horiz-adv-x="1520" d="M74 1167v159l176 118h183v-691h-180v533h-3zM99 0l1055 1443h202l-1053 -1443h-204zM939 473v4q0 104 75.5 168t198.5 64q118 0 191.5 -56.5t73.5 -148.5q0 -54 -28.5 -102t-99.5 -112l-158 -144v-3h294v-143h-536v124l273 247q42 41 58 67t16 53q0 35 -25.5 57t-66.5 22 t-68 -26.5t-27 -66.5v-4h-171z" />
<glyph unicode="&#xbe;" horiz-adv-x="1623" d="M42 962h177q3 -38 31.5 -59.5t74.5 -21.5q45 0 73 22.5t28 57.5q0 38 -27.5 60t-75.5 22h-84v126h85q42 0 67 22t25 57t-25 55.5t-69 20.5q-43 0 -70 -23.5t-29 -62.5h-168q1 101 75.5 162.5t197.5 61.5q118 0 190 -51.5t72 -136.5q0 -61 -39 -104.5t-105 -55.5v-4 q79 -7 124 -51.5t45 -113.5q0 -95 -79.5 -152.5t-211.5 -57.5q-124 0 -201 62t-81 165zM207 0l1055 1443h202l-1053 -1443h-204zM987 108v156q81 156 259 427h259v-438h85v-145h-85v-108h-177v108h-341zM1144 246h189v320h-3q-125 -199 -186 -317v-3z" />
<glyph unicode="&#xbf;" horiz-adv-x="1035" d="M83 22q0 216 211 342q96 57 130.5 105.5t34.5 125.5v61h207l1 -80q4 -104 -41.5 -177t-150.5 -136q-91 -55 -127.5 -106t-36.5 -126q0 -87 62 -142.5t164 -55.5q103 0 165.5 58t69.5 158h208q-7 -177 -125.5 -288t-327.5 -111q-198 0 -321 104.5t-123 267.5zM419 995 q0 55 38 92.5t94 37.5t94 -37.5t38 -92.5q0 -54 -38.5 -91.5t-93.5 -37.5t-93.5 37.5t-38.5 91.5z" />
<glyph unicode="&#xc0;" horiz-adv-x="1336" d="M26 0l521 1443h242l521 -1443h-237l-132 390h-550l-132 -390h-233zM301 1856h225l231 -303h-176zM448 570h436l-215 633h-6z" />
<glyph unicode="&#xc1;" horiz-adv-x="1336" d="M26 0l521 1443h242l521 -1443h-237l-132 390h-550l-132 -390h-233zM448 570h436l-215 633h-6zM580 1551l231 303h225l-280 -303h-176z" />
<glyph unicode="&#xc2;" horiz-adv-x="1336" d="M26 0l521 1443h242l521 -1443h-237l-132 390h-550l-132 -390h-233zM296 1547l286 306h172l286 -306h-188l-182 200h-4l-182 -200h-188zM448 570h436l-215 633h-6z" />
<glyph unicode="&#xc3;" horiz-adv-x="1336" d="M26 0l521 1443h242l521 -1443h-237l-132 390h-550l-132 -390h-233zM350 1553q0 120 51.5 188.5t139.5 68.5q47 0 88 -23t65 -50t51.5 -50t51.5 -23q63 0 63 132h130q0 -118 -52.5 -188.5t-136.5 -70.5q-45 0 -84.5 23t-63 50t-52 50t-53.5 23q-33 0 -50.5 -34.5 t-18.5 -95.5h-129zM448 570h436l-215 633h-6z" />
<glyph unicode="&#xc4;" horiz-adv-x="1336" d="M26 0l521 1443h242l521 -1443h-237l-132 390h-550l-132 -390h-233zM346 1695q0 49 35.5 84t85.5 35t85 -34.5t35 -84.5q0 -49 -35 -84t-85 -35t-85.5 35t-35.5 84zM448 570h436l-215 633h-6zM749 1695q0 49 35.5 84t85.5 35t85 -34.5t35 -84.5q0 -49 -35 -84t-85 -35 t-85.5 35t-35.5 84z" />
<glyph unicode="&#xc5;" horiz-adv-x="1336" d="M26 0l521 1443h242l521 -1443h-237l-132 390h-550l-132 -390h-233zM448 570h436l-215 633h-6zM461 1714q0 85 61 145.5t146 60.5t146 -60.5t61 -145.5q0 -84 -61 -144.5t-146 -60.5t-146 60.5t-61 144.5zM557 1714q0 -45 32.5 -77.5t78.5 -32.5t78.5 32.5t32.5 77.5 q0 46 -32.5 78.5t-78.5 32.5t-78.5 -32.5t-32.5 -78.5z" />
<glyph unicode="&#xc6;" horiz-adv-x="1997" d="M13 0l661 1443h1189v-193h-685v-430h648v-186h-648v-441h685v-193h-900v428h-527l-196 -428h-227zM514 607h449v656h-151z" />
<glyph unicode="&#xc7;" horiz-adv-x="1424" d="M81 722q0 342 179 543.5t482 201.5q246 0 415 -138.5t197 -363.5h-222q-30 139 -136.5 222.5t-253.5 83.5q-197 0 -314.5 -149.5t-117.5 -399.5q0 -253 117 -401.5t316 -148.5q150 0 252.5 73t136.5 204h223q-38 -208 -182 -331t-366 -140l-43 -110q97 0 148.5 -39.5 t51.5 -114.5q0 -80 -62.5 -129.5t-163.5 -50.5q-85 -2 -145 17v105q37 -14 118 -14q115 0 115 66q0 34 -32.5 48.5t-108.5 14.5h-55v83l51 124q-278 21 -439 219.5t-161 524.5z" />
<glyph unicode="&#xc8;" horiz-adv-x="1146" d="M133 0v1443h916v-193h-692v-422h655v-186h-655v-448h692v-194h-916zM224 1856h225l231 -303h-176z" />
<glyph unicode="&#xc9;" horiz-adv-x="1146" d="M133 0v1443h916v-193h-692v-422h655v-186h-655v-448h692v-194h-916zM503 1551l231 303h225l-280 -303h-176z" />
<glyph unicode="&#xca;" horiz-adv-x="1146" d="M133 0v1443h916v-193h-692v-422h655v-186h-655v-448h692v-194h-916zM219 1547l286 306h172l286 -306h-188l-182 200h-4l-182 -200h-188z" />
<glyph unicode="&#xcb;" horiz-adv-x="1146" d="M133 0v1443h916v-193h-692v-422h655v-186h-655v-448h692v-194h-916zM269 1695q0 49 35.5 84t85.5 35t85 -34.5t35 -84.5q0 -49 -35 -84t-85 -35t-85.5 35t-35.5 84zM672 1695q0 49 35.5 84t85.5 35t85 -34.5t35 -84.5q0 -49 -35 -84t-85 -35t-85.5 35t-35.5 84z" />
<glyph unicode="&#xcc;" horiz-adv-x="490" d="M-122 1856h225l231 -303h-176zM133 0v1443h224v-1443h-224z" />
<glyph unicode="&#xcd;" horiz-adv-x="490" d="M133 0v1443h224v-1443h-224zM157 1551l231 303h225l-280 -303h-176z" />
<glyph unicode="&#xce;" horiz-adv-x="490" d="M-127 1547l286 306h172l286 -306h-188l-182 200h-4l-182 -200h-188zM133 0v1443h224v-1443h-224z" />
<glyph unicode="&#xcf;" horiz-adv-x="490" d="M-77 1695q0 49 35.5 84t85.5 35t85 -34.5t35 -84.5q0 -49 -35 -84t-85 -35t-85.5 35t-35.5 84zM133 0v1443h224v-1443h-224zM326 1695q0 49 35.5 84t85.5 35t85 -34.5t35 -84.5q0 -49 -35 -84t-85 -35t-85.5 35t-35.5 84z" />
<glyph unicode="&#xd0;" horiz-adv-x="1462" d="M19 648v184h114v611h517q323 0 503 -189t180 -530q0 -342 -180 -533t-503 -191h-517v648h-114zM357 194h272q230 0 353 136.5t123 391.5t-123 391.5t-353 136.5h-272v-418h272v-184h-272v-454z" />
<glyph unicode="&#xd1;" horiz-adv-x="1443" d="M133 0v1443h203l748 -1064h8v1064h218v-1443h-202l-748 1063h-9v-1063h-218zM404 1553q0 120 51.5 188.5t139.5 68.5q47 0 88 -23t65 -50t51.5 -50t51.5 -23q63 0 63 132h130q0 -118 -52.5 -188.5t-136.5 -70.5q-45 0 -84.5 23t-63 50t-52 50t-53.5 23q-33 0 -50.5 -34.5 t-18.5 -95.5h-129z" />
<glyph unicode="&#xd2;" horiz-adv-x="1513" d="M81 721q0 344 182 545t494 201q311 0 493.5 -201t182.5 -545t-182 -544.5t-494 -200.5t-494 200.5t-182 544.5zM310 721q0 -252 120.5 -400t326.5 -148q205 0 325.5 148t120.5 400q0 253 -120.5 401t-325.5 148q-206 0 -326.5 -148t-120.5 -401zM390 1856h225l231 -303 h-176z" />
<glyph unicode="&#xd3;" horiz-adv-x="1513" d="M81 721q0 344 182 545t494 201q311 0 493.5 -201t182.5 -545t-182 -544.5t-494 -200.5t-494 200.5t-182 544.5zM310 721q0 -252 120.5 -400t326.5 -148q205 0 325.5 148t120.5 400q0 253 -120.5 401t-325.5 148q-206 0 -326.5 -148t-120.5 -401zM669 1551l231 303h225 l-280 -303h-176z" />
<glyph unicode="&#xd4;" horiz-adv-x="1513" d="M81 721q0 344 182 545t494 201q311 0 493.5 -201t182.5 -545t-182 -544.5t-494 -200.5t-494 200.5t-182 544.5zM310 721q0 -252 120.5 -400t326.5 -148q205 0 325.5 148t120.5 400q0 253 -120.5 401t-325.5 148q-206 0 -326.5 -148t-120.5 -401zM385 1547l286 306h172 l286 -306h-188l-182 200h-4l-182 -200h-188z" />
<glyph unicode="&#xd5;" horiz-adv-x="1513" d="M81 721q0 344 182 545t494 201q311 0 493.5 -201t182.5 -545t-182 -544.5t-494 -200.5t-494 200.5t-182 544.5zM310 721q0 -252 120.5 -400t326.5 -148q205 0 325.5 148t120.5 400q0 253 -120.5 401t-325.5 148q-206 0 -326.5 -148t-120.5 -401zM439 1553 q0 120 51.5 188.5t139.5 68.5q47 0 88 -23t65 -50t51.5 -50t51.5 -23q63 0 63 132h130q0 -118 -52.5 -188.5t-136.5 -70.5q-45 0 -84.5 23t-63 50t-52 50t-53.5 23q-33 0 -50.5 -34.5t-18.5 -95.5h-129z" />
<glyph unicode="&#xd6;" horiz-adv-x="1513" d="M81 721q0 344 182 545t494 201q311 0 493.5 -201t182.5 -545t-182 -544.5t-494 -200.5t-494 200.5t-182 544.5zM310 721q0 -252 120.5 -400t326.5 -148q205 0 325.5 148t120.5 400q0 253 -120.5 401t-325.5 148q-206 0 -326.5 -148t-120.5 -401zM435 1695q0 49 35.5 84 t85.5 35t85 -34.5t35 -84.5q0 -49 -35 -84t-85 -35t-85.5 35t-35.5 84zM838 1695q0 49 35.5 84t85.5 35t85 -34.5t35 -84.5q0 -49 -35 -84t-85 -35t-85.5 35t-35.5 84z" />
<glyph unicode="&#xd7;" horiz-adv-x="1271" d="M199 275l306 306l-306 307l130 130l307 -306l306 306l129 -130l-305 -307l305 -306l-129 -130l-306 306l-307 -306z" />
<glyph unicode="&#xd8;" horiz-adv-x="1513" d="M81 721q0 344 182 545t494 201q238 0 404 -120l108 147l101 -65l-119 -163q182 -201 182 -545t-182 -544.5t-494 -200.5q-215 0 -374 99l-94 -129l-101 73l98 134q-205 202 -205 568zM310 721q0 -240 110 -386l614 838q-112 97 -277 97q-206 0 -326.5 -148t-120.5 -401z M509 248q104 -75 248 -75q205 0 325.5 148t120.5 400q0 216 -89 357z" />
<glyph unicode="&#xd9;" horiz-adv-x="1434" d="M133 507v936h224v-917q0 -158 95.5 -254.5t264.5 -96.5t265 96.5t96 254.5v917h223v-936q0 -237 -158 -384t-426 -147t-426 147t-158 384zM350 1856h225l231 -303h-176z" />
<glyph unicode="&#xda;" horiz-adv-x="1434" d="M133 507v936h224v-917q0 -158 95.5 -254.5t264.5 -96.5t265 96.5t96 254.5v917h223v-936q0 -237 -158 -384t-426 -147t-426 147t-158 384zM629 1551l231 303h225l-280 -303h-176z" />
<glyph unicode="&#xdb;" horiz-adv-x="1434" d="M133 507v936h224v-917q0 -158 95.5 -254.5t264.5 -96.5t265 96.5t96 254.5v917h223v-936q0 -237 -158 -384t-426 -147t-426 147t-158 384zM345 1547l286 306h172l286 -306h-188l-182 200h-4l-182 -200h-188z" />
<glyph unicode="&#xdc;" horiz-adv-x="1434" d="M133 507v936h224v-917q0 -158 95.5 -254.5t264.5 -96.5t265 96.5t96 254.5v917h223v-936q0 -237 -158 -384t-426 -147t-426 147t-158 384zM395 1695q0 49 35.5 84t85.5 35t85 -34.5t35 -84.5q0 -49 -35 -84t-85 -35t-85.5 35t-35.5 84zM798 1695q0 49 35.5 84t85.5 35 t85 -34.5t35 -84.5q0 -49 -35 -84t-85 -35t-85.5 35t-35.5 84z" />
<glyph unicode="&#xdd;" horiz-adv-x="1293" d="M26 1443h250l368 -637h7l368 637h248l-509 -852v-591h-224v591zM558 1551l231 303h225l-280 -303h-176z" />
<glyph unicode="&#xde;" horiz-adv-x="1267" d="M157 0v1443h224v-255h350q121 0 220 -50t160 -149t61 -231t-62 -231.5t-163 -150t-223 -50.5h-343v-326h-224zM381 514h287q125 0 200 62.5t75 181.5q0 118 -75 179.5t-200 61.5h-287v-485z" />
<glyph unicode="&#xdf;" horiz-adv-x="1282" d="M170 0v1094q0 181 121.5 289t326.5 108q196 0 319.5 -105t123.5 -271q0 -125 -60.5 -216.5t-164.5 -122.5v-7q157 -19 246.5 -117.5t89.5 -251.5q0 -188 -127 -301t-339 -113q-98 0 -157 14v181q53 -15 131 -15q127 0 201.5 65.5t74.5 176.5q0 118 -83.5 183.5 t-232.5 65.5h-65v195h50q106 0 166.5 63.5t60.5 176.5q0 97 -63.5 157t-166.5 60q-113 0 -175.5 -65t-62.5 -182v-1062h-214z" />
<glyph unicode="&#xe0;" horiz-adv-x="1092" d="M63 311q0 142 106.5 223t308.5 94l293 17v84q0 93 -59.5 142.5t-168.5 49.5q-88 0 -148.5 -42t-74.5 -113h-203q5 144 127 239t305 95q199 0 317.5 -97t118.5 -258v-745h-207v181h-5q-45 -88 -138 -140t-205 -52q-163 0 -265 88.5t-102 233.5zM190 1558h225l215 -303 h-178zM282 315q0 -70 56 -111.5t150 -41.5q121 0 202 69.5t81 176.5v85l-264 -18q-225 -14 -225 -160z" />
<glyph unicode="&#xe1;" horiz-adv-x="1092" d="M63 311q0 142 106.5 223t308.5 94l293 17v84q0 93 -59.5 142.5t-168.5 49.5q-88 0 -148.5 -42t-74.5 -113h-203q5 144 127 239t305 95q199 0 317.5 -97t118.5 -258v-745h-207v181h-5q-45 -88 -138 -140t-205 -52q-163 0 -265 88.5t-102 233.5zM282 315q0 -70 56 -111.5 t150 -41.5q121 0 202 69.5t81 176.5v85l-264 -18q-225 -14 -225 -160zM454 1255l215 303h225l-262 -303h-178z" />
<glyph unicode="&#xe2;" horiz-adv-x="1092" d="M63 311q0 142 106.5 223t308.5 94l293 17v84q0 93 -59.5 142.5t-168.5 49.5q-88 0 -148.5 -42t-74.5 -113h-203q5 144 127 239t305 95q199 0 317.5 -97t118.5 -258v-745h-207v181h-5q-45 -88 -138 -140t-205 -52q-163 0 -265 88.5t-102 233.5zM193 1251l273 307h158 l273 -307h-185l-164 194h-6l-164 -194h-185zM282 315q0 -70 56 -111.5t150 -41.5q121 0 202 69.5t81 176.5v85l-264 -18q-225 -14 -225 -160z" />
<glyph unicode="&#xe3;" horiz-adv-x="1092" d="M63 311q0 142 106.5 223t308.5 94l293 17v84q0 93 -59.5 142.5t-168.5 49.5q-88 0 -148.5 -42t-74.5 -113h-203q5 144 127 239t305 95q199 0 317.5 -97t118.5 -258v-745h-207v181h-5q-45 -88 -138 -140t-205 -52q-163 0 -265 88.5t-102 233.5zM230 1274q0 120 51.5 188.5 t139.5 68.5q47 0 88 -23t65 -50t51.5 -50t51.5 -23q63 0 63 132h130q0 -118 -52.5 -188.5t-136.5 -70.5q-45 0 -84.5 23t-63 50t-52 50t-53.5 23q-33 0 -50.5 -34.5t-18.5 -95.5h-129zM282 315q0 -70 56 -111.5t150 -41.5q121 0 202 69.5t81 176.5v85l-264 -18 q-225 -14 -225 -160z" />
<glyph unicode="&#xe4;" horiz-adv-x="1092" d="M63 311q0 142 106.5 223t308.5 94l293 17v84q0 93 -59.5 142.5t-168.5 49.5q-88 0 -148.5 -42t-74.5 -113h-203q5 144 127 239t305 95q199 0 317.5 -97t118.5 -258v-745h-207v181h-5q-45 -88 -138 -140t-205 -52q-163 0 -265 88.5t-102 233.5zM223 1379q0 49 35.5 84 t85.5 35t85 -34.5t35 -84.5q0 -49 -35 -84t-85 -35t-85.5 35t-35.5 84zM282 315q0 -70 56 -111.5t150 -41.5q121 0 202 69.5t81 176.5v85l-264 -18q-225 -14 -225 -160zM626 1379q0 49 35.5 84t85.5 35t85 -34.5t35 -84.5q0 -49 -35 -84t-85 -35t-85.5 35t-35.5 84z" />
<glyph unicode="&#xe5;" horiz-adv-x="1092" d="M63 311q0 142 106.5 223t308.5 94l293 17v84q0 93 -59.5 142.5t-168.5 49.5q-88 0 -148.5 -42t-74.5 -113h-203q5 144 127 239t305 95q199 0 317.5 -97t118.5 -258v-745h-207v181h-5q-45 -88 -138 -140t-205 -52q-163 0 -265 88.5t-102 233.5zM282 315q0 -70 56 -111.5 t150 -41.5q121 0 202 69.5t81 176.5v85l-264 -18q-225 -14 -225 -160zM338 1398q0 85 61 145.5t146 60.5t146 -60.5t61 -145.5q0 -84 -61 -144.5t-146 -60.5t-146 60.5t-61 144.5zM434 1398q0 -45 32.5 -77.5t78.5 -32.5t78.5 32.5t32.5 77.5q0 46 -32.5 78.5t-78.5 32.5 t-78.5 -32.5t-32.5 -78.5z" />
<glyph unicode="&#xe6;" horiz-adv-x="1796" d="M63 307q0 143 107 225.5t307 92.5l293 15v74q0 92 -64.5 149.5t-168.5 57.5q-97 0 -156.5 -42t-66.5 -113h-206q9 148 125.5 241t297.5 93q133 0 230.5 -52t138.5 -145h8q56 96 148.5 146.5t213.5 50.5q213 0 338.5 -145t125.5 -391v-75h-755v-14q0 -142 80 -227t214 -85 q91 0 155 41t87 114h207q-24 -149 -149 -240t-304 -91q-134 0 -237 56.5t-156 160.5h-9q-131 -215 -406 -215q-181 0 -289.5 87t-108.5 231zM282 315q0 -70 54 -111.5t144 -41.5q122 0 206 71t84 175v80l-266 -15q-107 -6 -164.5 -47t-57.5 -111zM980 642h536 q-3 130 -72.5 205.5t-185.5 75.5q-117 0 -193 -77t-85 -204z" />
<glyph unicode="&#xe7;" horiz-adv-x="1089" d="M62 543q0 253 139 405t370 152q101 0 187 -30.5t144.5 -83.5t94 -122.5t42.5 -148.5h-207q-16 90 -83.5 146t-175.5 56q-132 0 -211.5 -102t-79.5 -272q0 -174 80 -274t212 -100q106 0 173.5 50.5t86.5 145.5h207q-17 -155 -124.5 -255.5t-275.5 -118.5l-47 -123 q97 0 148.5 -39.5t51.5 -114.5q0 -80 -62.5 -129.5t-163.5 -50.5q-85 -2 -145 17v105q37 -14 118 -14q115 0 115 66q0 34 -32.5 48.5t-108.5 14.5h-55v83l55 136q-208 19 -330.5 166.5t-122.5 386.5z" />
<glyph unicode="&#xe8;" horiz-adv-x="1113" d="M62 539q0 255 137 408t365 153q224 0 355 -144.5t131 -391.5v-76h-769v-13q0 -141 81 -226.5t215 -85.5q95 0 164 42t91 113h207q-23 -146 -153 -238.5t-313 -92.5q-236 0 -373.5 148.5t-137.5 403.5zM209 1558h225l215 -303h-178zM282 642h551q-4 127 -78 204t-192 77 q-117 0 -194.5 -78t-86.5 -203z" />
<glyph unicode="&#xe9;" horiz-adv-x="1113" d="M62 539q0 255 137 408t365 153q224 0 355 -144.5t131 -391.5v-76h-769v-13q0 -141 81 -226.5t215 -85.5q95 0 164 42t91 113h207q-23 -146 -153 -238.5t-313 -92.5q-236 0 -373.5 148.5t-137.5 403.5zM282 642h551q-4 127 -78 204t-192 77q-117 0 -194.5 -78t-86.5 -203z M473 1255l215 303h225l-262 -303h-178z" />
<glyph unicode="&#xea;" horiz-adv-x="1113" d="M62 539q0 255 137 408t365 153q224 0 355 -144.5t131 -391.5v-76h-769v-13q0 -141 81 -226.5t215 -85.5q95 0 164 42t91 113h207q-23 -146 -153 -238.5t-313 -92.5q-236 0 -373.5 148.5t-137.5 403.5zM212 1251l273 307h158l273 -307h-185l-164 194h-6l-164 -194h-185z M282 642h551q-4 127 -78 204t-192 77q-117 0 -194.5 -78t-86.5 -203z" />
<glyph unicode="&#xeb;" horiz-adv-x="1113" d="M62 539q0 255 137 408t365 153q224 0 355 -144.5t131 -391.5v-76h-769v-13q0 -141 81 -226.5t215 -85.5q95 0 164 42t91 113h207q-23 -146 -153 -238.5t-313 -92.5q-236 0 -373.5 148.5t-137.5 403.5zM242 1379q0 49 35.5 84t85.5 35t85 -34.5t35 -84.5q0 -49 -35 -84 t-85 -35t-85.5 35t-35.5 84zM282 642h551q-4 127 -78 204t-192 77q-117 0 -194.5 -78t-86.5 -203zM645 1379q0 49 35.5 84t85.5 35t85 -34.5t35 -84.5q0 -49 -35 -84t-85 -35t-85.5 35t-35.5 84z" />
<glyph unicode="&#xec;" horiz-adv-x="455" d="M-127 1558h225l215 -303h-178zM119 0v1086h217v-1086h-217z" />
<glyph unicode="&#xed;" horiz-adv-x="455" d="M119 0v1086h217v-1086h-217zM137 1255l215 303h225l-262 -303h-178z" />
<glyph unicode="&#xee;" horiz-adv-x="455" d="M-124 1251l273 307h158l273 -307h-185l-164 194h-6l-164 -194h-185zM119 0v1086h217v-1086h-217z" />
<glyph unicode="&#xef;" horiz-adv-x="455" d="M-94 1379q0 49 35.5 84t85.5 35t85 -34.5t35 -84.5q0 -49 -35 -84t-85 -35t-85.5 35t-35.5 84zM119 0v1086h217v-1086h-217zM309 1379q0 49 35.5 84t85.5 35t85 -34.5t35 -84.5q0 -49 -35 -84t-85 -35t-85.5 35t-35.5 84z" />
<glyph unicode="&#xf0;" horiz-adv-x="1181" d="M82 525q0 241 129 386t341 145q89 0 171.5 -44t119.5 -111h15q-21 79 -71 170t-107 158l-280 -92l-42 123l229 75q-70 74 -214 188h262q76 -62 136 -128l255 84l43 -122l-203 -65q232 -305 232 -710q0 -277 -136.5 -438.5t-368.5 -161.5q-235 0 -373 146.5t-138 396.5z M304 524q0 -164 78.5 -261t212.5 -97t213.5 97t79.5 261q0 163 -80 261t-213 98t-212 -97.5t-79 -261.5z" />
<glyph unicode="&#xf1;" horiz-adv-x="1168" d="M111 0v1086h207v-183h4q101 195 353 195q180 0 283.5 -107.5t103.5 -294.5v-696h-217v655q0 124 -63 190.5t-182 66.5q-123 0 -197.5 -78.5t-74.5 -206.5v-627h-217zM271 1274q0 120 51.5 188.5t139.5 68.5q47 0 88 -23t65 -50t51.5 -50t51.5 -23q63 0 63 132h130 q0 -118 -52.5 -188.5t-136.5 -70.5q-45 0 -84.5 23t-63 50t-52 50t-53.5 23q-33 0 -50.5 -34.5t-18.5 -95.5h-129z" />
<glyph unicode="&#xf2;" horiz-adv-x="1152" d="M62 543q0 255 139.5 406t374.5 151t374 -150.5t139 -406.5t-138.5 -406t-374.5 -150t-375 150t-139 406zM221 1558h225l215 -303h-178zM282 543q0 -177 78 -276.5t216 -99.5t215.5 99t77.5 277t-77.5 277.5t-215.5 99.5t-216 -100t-78 -277z" />
<glyph unicode="&#xf3;" horiz-adv-x="1152" d="M62 543q0 255 139.5 406t374.5 151t374 -150.5t139 -406.5t-138.5 -406t-374.5 -150t-375 150t-139 406zM282 543q0 -177 78 -276.5t216 -99.5t215.5 99t77.5 277t-77.5 277.5t-215.5 99.5t-216 -100t-78 -277zM485 1255l215 303h225l-262 -303h-178z" />
<glyph unicode="&#xf4;" horiz-adv-x="1152" d="M62 543q0 255 139.5 406t374.5 151t374 -150.5t139 -406.5t-138.5 -406t-374.5 -150t-375 150t-139 406zM224 1251l273 307h158l273 -307h-185l-164 194h-6l-164 -194h-185zM282 543q0 -177 78 -276.5t216 -99.5t215.5 99t77.5 277t-77.5 277.5t-215.5 99.5t-216 -100 t-78 -277z" />
<glyph unicode="&#xf5;" horiz-adv-x="1152" d="M62 543q0 255 139.5 406t374.5 151t374 -150.5t139 -406.5t-138.5 -406t-374.5 -150t-375 150t-139 406zM261 1274q0 120 51.5 188.5t139.5 68.5q47 0 88 -23t65 -50t51.5 -50t51.5 -23q63 0 63 132h130q0 -118 -52.5 -188.5t-136.5 -70.5q-45 0 -84.5 23t-63 50t-52 50 t-53.5 23q-33 0 -50.5 -34.5t-18.5 -95.5h-129zM282 543q0 -177 78 -276.5t216 -99.5t215.5 99t77.5 277t-77.5 277.5t-215.5 99.5t-216 -100t-78 -277z" />
<glyph unicode="&#xf6;" horiz-adv-x="1152" d="M62 543q0 255 139.5 406t374.5 151t374 -150.5t139 -406.5t-138.5 -406t-374.5 -150t-375 150t-139 406zM254 1379q0 49 35.5 84t85.5 35t85 -34.5t35 -84.5q0 -49 -35 -84t-85 -35t-85.5 35t-35.5 84zM282 543q0 -177 78 -276.5t216 -99.5t215.5 99t77.5 277 t-77.5 277.5t-215.5 99.5t-216 -100t-78 -277zM657 1379q0 49 35.5 84t85.5 35t85 -34.5t35 -84.5q0 -49 -35 -84t-85 -35t-85.5 35t-35.5 84z" />
<glyph unicode="&#xf7;" d="M116 487v173h1039v-173h-1039zM496 205q0 60 39.5 98.5t100.5 38.5t100.5 -38.5t39.5 -98.5t-39.5 -98.5t-100.5 -38.5q-62 0 -101 38t-39 99zM496 942q0 60 39.5 98.5t100.5 38.5t100.5 -38.5t39.5 -98.5t-39.5 -98.5t-100.5 -38.5q-62 0 -101 38t-39 99z" />
<glyph unicode="&#xf8;" horiz-adv-x="1152" d="M62 543q0 255 139.5 406t374.5 151q150 0 260 -62l65 98l102 -62l-70 -107q156 -150 156 -424q0 -256 -138.5 -406t-374.5 -150q-141 0 -252 57l-61 -93l-104 67l64 97q-161 150 -161 428zM282 543q0 -154 59 -250l389 585q-67 42 -154 42q-138 0 -216 -100t-78 -277z M430 204q63 -37 146 -37q138 0 215.5 99t77.5 277q0 149 -55 244z" />
<glyph unicode="&#xf9;" horiz-adv-x="1168" d="M106 390v696h217v-655q0 -125 64 -190.5t182 -65.5q122 0 196.5 78t74.5 207v626h217v-1086h-207v186h-4q-47 -97 -137 -147.5t-214 -50.5q-178 0 -283.5 108t-105.5 294zM227 1558h225l215 -303h-178z" />
<glyph unicode="&#xfa;" horiz-adv-x="1168" d="M106 390v696h217v-655q0 -125 64 -190.5t182 -65.5q122 0 196.5 78t74.5 207v626h217v-1086h-207v186h-4q-47 -97 -137 -147.5t-214 -50.5q-178 0 -283.5 108t-105.5 294zM491 1255l215 303h225l-262 -303h-178z" />
<glyph unicode="&#xfb;" horiz-adv-x="1168" d="M106 390v696h217v-655q0 -125 64 -190.5t182 -65.5q122 0 196.5 78t74.5 207v626h217v-1086h-207v186h-4q-47 -97 -137 -147.5t-214 -50.5q-178 0 -283.5 108t-105.5 294zM230 1251l273 307h158l273 -307h-185l-164 194h-6l-164 -194h-185z" />
<glyph unicode="&#xfc;" horiz-adv-x="1168" d="M106 390v696h217v-655q0 -125 64 -190.5t182 -65.5q122 0 196.5 78t74.5 207v626h217v-1086h-207v186h-4q-47 -97 -137 -147.5t-214 -50.5q-178 0 -283.5 108t-105.5 294zM260 1379q0 49 35.5 84t85.5 35t85 -34.5t35 -84.5q0 -49 -35 -84t-85 -35t-85.5 35t-35.5 84z M663 1379q0 49 35.5 84t85.5 35t85 -34.5t35 -84.5q0 -49 -35 -84t-85 -35t-85.5 35t-35.5 84z" />
<glyph unicode="&#xfd;" horiz-adv-x="1066" d="M21 1086h233l279 -888h5l279 888h228l-407 -1136q-70 -195 -160.5 -270t-257.5 -75q-54 0 -88 6v176q20 -5 69 -5q78 0 123.5 36.5t73.5 122.5l17 56zM443 1255l215 303h225l-262 -303h-178z" />
<glyph unicode="&#xfe;" horiz-adv-x="1201" d="M120 -355v1861h209v-600h16q50 93 140 146t201 53q208 0 329.5 -151.5t121.5 -410.5q0 -257 -122 -409t-328 -152q-116 0 -205 48t-131 134h-16v-519h-215zM331 543q0 -174 79 -275.5t214 -101.5q137 0 214.5 100t77.5 277t-77.5 277.5t-213.5 100.5t-215 -101.5 t-79 -276.5z" />
<glyph unicode="&#xff;" horiz-adv-x="1066" d="M21 1086h233l279 -888h5l279 888h228l-407 -1136q-70 -195 -160.5 -270t-257.5 -75q-54 0 -88 6v176q20 -5 69 -5q78 0 123.5 36.5t73.5 122.5l17 56zM212 1379q0 49 35.5 84t85.5 35t85 -34.5t35 -84.5q0 -49 -35 -84t-85 -35t-85.5 35t-35.5 84zM615 1379q0 49 35.5 84 t85.5 35t85 -34.5t35 -84.5q0 -49 -35 -84t-85 -35t-85.5 35t-35.5 84z" />
<glyph unicode="&#x152;" horiz-adv-x="2216" d="M82 721q0 342 181.5 545.5t484.5 203.5q160 0 285.5 -66.5t196.5 -189.5v229h889v-193h-676v-422h638v-186h-638v-448h676v-194h-889v231q-67 -121 -196 -189.5t-287 -68.5q-303 0 -484 203t-181 545zM312 721q0 -252 122 -400.5t330 -148.5t330 148.5t122 400.5 t-122.5 401t-329.5 149q-208 0 -330 -148.5t-122 -401.5z" />
<glyph unicode="&#x153;" horiz-adv-x="1916" d="M62 542q0 255 138.5 406.5t370.5 151.5q136 0 233.5 -51.5t167.5 -158.5h10q58 98 162 154t231 56q220 0 349.5 -145.5t129.5 -390.5v-76h-765v-16q0 -140 81 -224.5t215 -84.5q94 0 161.5 41t89.5 110h207q-23 -143 -152 -235t-306 -92q-132 0 -238.5 54.5t-164.5 151.5 h-10q-70 -106 -167 -156t-233 -50q-233 0 -371.5 150.5t-138.5 404.5zM280 543q0 -176 77.5 -275t214.5 -99q139 0 216 99t77 275t-77.5 275t-215.5 99q-137 0 -214.5 -99t-77.5 -275zM1089 642h547q-4 127 -77 204t-191 77q-117 0 -194 -78t-85 -203z" />
<glyph unicode="&#x178;" horiz-adv-x="1293" d="M26 1443h250l368 -637h7l368 637h248l-509 -852v-591h-224v591zM324 1695q0 49 35.5 84t85.5 35t85 -34.5t35 -84.5q0 -49 -35 -84t-85 -35t-85.5 35t-35.5 84zM727 1695q0 49 35.5 84t85.5 35t85 -34.5t35 -84.5q0 -49 -35 -84t-85 -35t-85.5 35t-35.5 84z" />
<glyph unicode="&#x2c6;" horiz-adv-x="1008" d="M152 1251l273 307h158l273 -307h-185l-164 194h-6l-164 -194h-185z" />
<glyph unicode="&#x2dc;" horiz-adv-x="1008" d="M184 1274q0 120 51.5 188.5t139.5 68.5q47 0 88 -23t65 -50t51.5 -50t51.5 -23q63 0 63 132h130q0 -118 -52.5 -188.5t-136.5 -70.5q-45 0 -84.5 23t-63 50t-52 50t-53.5 23q-33 0 -50.5 -34.5t-18.5 -95.5h-129z" />
<glyph unicode="&#x2000;" horiz-adv-x="960" />
<glyph unicode="&#x2001;" horiz-adv-x="1920" />
<glyph unicode="&#x2002;" horiz-adv-x="960" />
<glyph unicode="&#x2003;" horiz-adv-x="1920" />
<glyph unicode="&#x2004;" horiz-adv-x="640" />
<glyph unicode="&#x2005;" horiz-adv-x="480" />
<glyph unicode="&#x2006;" horiz-adv-x="320" />
<glyph unicode="&#x2007;" horiz-adv-x="320" />
<glyph unicode="&#x2008;" horiz-adv-x="240" />
<glyph unicode="&#x2009;" horiz-adv-x="384" />
<glyph unicode="&#x200a;" horiz-adv-x="106" />
<glyph unicode="&#x2010;" horiz-adv-x="888" d="M116 475v195h656v-195h-656z" />
<glyph unicode="&#x2011;" horiz-adv-x="888" d="M116 475v195h656v-195h-656z" />
<glyph unicode="&#x2012;" horiz-adv-x="888" d="M116 475v195h656v-195h-656z" />
<glyph unicode="&#x2013;" horiz-adv-x="1024" d="M0 486v198h1024v-198h-1024z" />
<glyph unicode="&#x2014;" horiz-adv-x="2048" d="M0 486v198h2048v-198h-2048z" />
<glyph unicode="&#x2018;" horiz-adv-x="558" d="M84 1443h211l118 -528h-185z" />
<glyph unicode="&#x2019;" horiz-adv-x="558" d="M145 915l118 528h210l-143 -528h-185z" />
<glyph unicode="&#x201a;" horiz-adv-x="558" d="M88 -402l118 539h210l-140 -539h-188z" />
<glyph unicode="&#x201c;" horiz-adv-x="975" d="M88 1443h210l118 -528h-185zM499 1443h210l118 -528h-185z" />
<glyph unicode="&#x201d;" horiz-adv-x="975" d="M148 915l118 528h210l-143 -528h-185zM559 915l118 528h210l-143 -528h-185z" />
<glyph unicode="&#x201e;" horiz-adv-x="975" d="M88 -402l118 539h208l-138 -539h-188zM507 -402l118 539h208l-138 -539h-188z" />
<glyph unicode="&#x2022;" horiz-adv-x="990" d="M179 611q0 130 93 223t223 93q131 0 223.5 -92.5t92.5 -223.5t-92.5 -223.5t-223.5 -92.5q-130 0 -223 93t-93 223z" />
<glyph unicode="&#x2026;" horiz-adv-x="1568" d="M138 120q0 55 38 93t93 38t93 -37.5t38 -93.5q0 -55 -38 -93t-93 -38t-93 38t-38 93zM655 120q0 55 38 93t93 38q56 0 93.5 -37.5t37.5 -93.5q0 -55 -38 -93t-93 -38t-93 38t-38 93zM1169 120q0 56 37.5 93.5t93.5 37.5q55 0 92.5 -37.5t37.5 -93.5q0 -55 -37.5 -93 t-92.5 -38t-93 38t-38 93z" />
<glyph unicode="&#x202f;" horiz-adv-x="384" />
<glyph unicode="&#x2039;" horiz-adv-x="831" d="M127 561v8l349 415h228l-349 -412v-13l349 -412h-229z" />
<glyph unicode="&#x203a;" horiz-adv-x="831" d="M127 147l349 412v13l-349 412h228l349 -415v-8l-347 -414h-230z" />
<glyph unicode="&#x205f;" horiz-adv-x="480" />
<glyph unicode="&#x20ac;" d="M65 492v144h177q-3 42 -3 85q0 51 4 88h-178v144h201q63 248 255 381.5t459 133.5q131 0 202 -22v-194q-79 18 -200 18q-171 0 -297 -81.5t-181 -235.5h539v-144h-571q-5 -47 -5 -88q0 -40 5 -85h571v-144h-540q55 -155 180.5 -237.5t297.5 -82.5q145 0 203 17v-194 q-68 -20 -204 -20q-268 0 -460 134t-254 383h-201z" />
<glyph unicode="&#x2122;" horiz-adv-x="2131" d="M130 1277v166h753v-166h-282v-671h-190v671h-281zM1021 606v837h214l263 -553h15l262 553h215v-837h-172v555h-15l-246 -515h-106l-243 515h-16v-555h-171z" />
<glyph unicode="&#x25fc;" horiz-adv-x="1085" d="M0 0v1085h1085v-1085h-1085z" />
<glyph unicode="&#xfb01;" horiz-adv-x="1122" d="M26 915v171h150v100q0 153 74 222.5t238 69.5q52 0 110 -10v-165q-35 8 -81 8q-67 0 -96.5 -31t-30.5 -101v-93h209v-171h-207v-915h-216v915h-150zM768 1366q0 53 37 89t90 36t90 -36t37 -89q0 -52 -37 -88.5t-90 -36.5t-90 36.5t-37 88.5zM786 0v1086h217v-1086h-217z " />
<glyph unicode="&#xfb02;" horiz-adv-x="1124" d="M26 915v171h150v100q0 153 74 222.5t238 69.5q52 0 110 -10v-165q-35 8 -81 8q-67 0 -96.5 -31t-30.5 -101v-93h209v-171h-207v-915h-216v915h-150zM787 0v1508h217v-1508h-217z" />
</font>
</defs>
</svg>
